<svg xmlns="http://www.w3.org/2000/svg" viewBox="0 0 758 758"><defs><style>.cls-1{fill:#ba2020;opacity:0;}.cls-2{fill:#252525;}.cls-3{fill:#ffcf00;}.cls-4{fill:#fff;}</style></defs><g id="Layer_2" data-name="Layer 2"><g id="Layer_1-2" data-name="Layer 1"><rect class="cls-1" width="758" height="758"/><path class="cls-2" d="M117.14,625.78a20,20,0,0,1-17.32-30L361.68,142.22a20,20,0,0,1,34.64,0L658.18,595.78a20,20,0,0,1-17.32,30Z"/><polygon class="cls-3" points="379 152.22 117.14 605.78 640.86 605.78 379 152.22"/><path class="cls-4" d="M295.66,395H462.34a11.47,11.47,0,0,1,9.94,17.21L388.94,556.57a11.48,11.48,0,0,1-19.88,0L285.72,412.21A11.47,11.47,0,0,1,295.66,395Z"/><rect class="cls-2" x="286.33" y="379" width="185.33" height="16" rx="8"/><rect class="cls-2" x="342.44" y="484.73" width="185.33" height="16" rx="8" transform="translate(-209.16 623.18) rotate(-60)"/><rect class="cls-4" x="321.54" y="240.17" width="67.37" height="16" rx="8" transform="translate(-37.3 431.72) rotate(-60)"/><rect class="cls-4" x="301.58" y="302.89" width="34.88" height="16" rx="8" transform="translate(-109.73 431.72) rotate(-60)"/><rect class="cls-4" x="379.61" y="245.6" width="34.63" height="16" rx="8" transform="translate(-21.16 470.55) rotate(-60)"/><rect class="cls-4" x="327.41" y="308.05" width="66.92" height="16" rx="8" transform="translate(-93.27 470.55) rotate(-60)"/><rect class="cls-3" x="362.34" y="487.38" width="68.22" height="16" rx="8" transform="translate(-230.79 591.02) rotate(-60)"/><rect class="cls-4" x="139.99" y="541.22" width="82.85" height="16" rx="8" transform="translate(-384.93 431.72) rotate(-60)"/><rect class="cls-4" x="195.97" y="454.95" width="70.51" height="16" rx="8" transform="translate(-285.31 431.72) rotate(-60)"/><rect class="cls-3" x="410.85" y="430.25" width="37.16" height="16" rx="8" transform="translate(-164.82 591.02) rotate(-60)"/><rect class="cls-4" x="421.12" y="508.46" width="120.13" height="16" rx="8" transform="translate(-206.68 674.95) rotate(-60)"/><rect class="cls-2" x="548.09" y="557.94" width="37.59" height="16" rx="8" transform="translate(-206.68 773.91) rotate(-60)"/><rect class="cls-2" x="229.77" y="484.73" width="185.33" height="16" rx="8" transform="translate(56.95 1018.33) rotate(-120)"/><path class="cls-2" d="M187.69,256.33a11.58,11.58,0,0,1-10.45-6.52L151,196.23a11.63,11.63,0,0,1,5.33-15.54A11.6,11.6,0,0,1,171.91,186l26.21,53.58a11.63,11.63,0,0,1-10.43,16.73Z"/><path class="cls-2" d="M158.25,289.68a11.83,11.83,0,0,1-3.77-.63L98.06,269.7a11.63,11.63,0,0,1,3.77-22.62,11.83,11.83,0,0,1,3.77.63L162,267.06a11.63,11.63,0,0,1-3.77,22.62Z"/><path class="cls-2" d="M107.45,360.29a11.62,11.62,0,0,1-5.12-22.06L155.91,312A11.62,11.62,0,0,1,172,326.22a11.52,11.52,0,0,1-5.88,6.67L112.55,359.1a11.47,11.47,0,0,1-5.1,1.19Z"/></g></g></svg>